<?xml version="1.0" encoding="UTF-8"?><svg id="Camada_2" xmlns="http://www.w3.org/2000/svg" viewBox="0 0 1300.61 670.51"><defs><style>.cls-1{fill:currentColor;}</style></defs><g id="Camada_1-2"><g id="Colossal_Logo_01"><path class="cls-1" d="M559.01,0c-24.96,0-66.84,7.78-66.84,59.84V610.68c0,52.06,41.88,59.84,66.84,59.84s67.32-7.78,67.32-59.84V59.84c0-52.06-42.18-59.84-67.32-59.84Zm46.74,332.45v5.65s-29.12,9.27-29.19,45.72v242.77h-34.63v-242.77c-.06-36.44-29.19-45.72-29.19-45.72h0v-5.66s29.13-9.27,29.19-45.72V43.92h34.63v242.81c.06,36.44,29.19,45.72,29.19,45.72h0Z"/><path class="cls-1" d="M66.38,0C23.58,0,0,21.25,0,59.84V610.68c0,38.58,23.58,59.84,66.38,59.84s66.38-21.8,66.38-59.84v-178.15h-.01l-48.58,48.57v145.49H49.53V43.92h62.66v5.67s-27.95,8.9-28.01,43.87V222.07l48.59-48.58V59.84C132.77,21.81,108.58,0,66.38,0Z"/><path class="cls-1" d="M370.38,620.92s28.94-8.91,28.94-43.97V5.13h-49.51V665.36h105.63v-38.77h-85.05s0-5.67,0-5.67Z"/><path class="cls-1" d="M1120.8,5.13h-77.55l-32.75,660.23h48.94l6.02-184.26,58.19,.06v5.67s-23.48,8.9-23.48,43.96l4.42,134.56h48.96L1120.8,5.13Zm-53.98,427.4l12.37-388.61h5.67l12.36,388.61h-30.4Z"/><path class="cls-1" d="M1215.56,626.6v-5.67s28.94-8.91,28.94-43.97V5.13h-49.51V665.36h105.63v-38.77h-85.05Z"/><path class="cls-1" d="M949.94,330.66c-7.45-7.22-36.03-31.76-42.27-38.53-13.3-14.36-15.73-28.87-15.73-52.28V43.92h32.29v.02h28.47v5.67s-28.47,8.91-28.47,43.96V222.07h.01s49.04-49.04,49.04-49.04V57.5c0-36.54-23.84-57.5-65.43-57.5-24.63,0-65.93,7.53-65.93,57.96V251.55c0,39.31,9.52,56.62,23.82,70.52,7.45,7.23,36.03,31.76,42.27,38.52,11.79,13.26,15.75,26.43,15.75,52.28v213.72h-61.73v-5.67s28.96-8.91,28.96-43.97v-144.42h0l-49.53,49.53v130.49c0,36.84,24.19,57.97,66.38,57.97s65.91-21.31,65.91-58.44v-210.89c0-39.31-9.52-56.62-23.82-70.52Z"/><path class="cls-1" d="M776.22,330.66c-7.45-7.22-36.03-31.76-42.27-38.53-13.3-14.36-15.73-28.87-15.73-52.28V43.92l60.77,.02v5.67s-28.47,8.91-28.47,43.96V222.07h.01s49.04-49.04,49.04-49.04V57.5c0-36.54-23.84-57.5-65.43-57.5-24.63,0-65.93,7.53-65.93,57.96V251.55c0,39.31,9.52,56.62,23.82,70.52,7.45,7.23,36.03,31.76,42.27,38.52,11.79,13.26,15.75,26.43,15.75,52.28v213.72h-61.73v-5.67s28.96-8.91,28.96-43.97v-144.42h0l-49.53,49.53v130.49c0,36.84,24.19,57.97,66.38,57.97s65.91-21.31,65.91-58.44v-210.89c0-39.31-9.52-56.62-23.82-70.52Z"/><path class="cls-1" d="M241.06,0c-24.96,0-66.84,7.78-66.84,59.84V610.68c0,52.06,41.88,59.84,66.84,59.84s67.32-7.78,67.32-59.84V59.84C308.38,7.78,266.2,0,241.06,0Zm17.32,626.59h-34.63V43.92h34.64V626.59Z"/></g></g></svg>