<svg xmlns="http://www.w3.org/2000/svg" viewBox="0 0 48 56" fill="currentColor">
  <!-- Houndstooth-style F&F mark -->
  <!-- Top-left tooth -->
  <path d="M8,8 L16,0 L32,0 L32,8 L20,8 L20,16 L8,16Z"/>
  <!-- Top-right tooth -->
  <path d="M32,0 L32,8 L36,8 L36,16 L48,16 L48,8 L40,0Z"/>
  <!-- Middle-left bridge -->
  <path d="M20,16 L28,16 L28,20 L32,16 L36,16 L36,28 L32,28 L32,24 L20,24Z"/>
  <!-- Middle-right tooth -->
  <path d="M36,16 L48,16 L48,28 L40,28 L40,36 L48,36 L48,28"/>
  <!-- Bottom-left tooth -->
  <path d="M0,20 L8,16 L8,28 L20,28 L20,40 L12,40 L12,48 L20,48 L20,40"/>
  <path d="M0,20 L0,40 L8,48 L12,48 L12,40 L8,40 L8,28 L0,28Z"/>
  <!-- Bottom-center -->
  <path d="M20,28 L32,28 L32,40 L20,40Z"/>
  <!-- Bottom-right tooth -->
  <path d="M32,28 L40,28 L40,36 L48,36 L48,48 L40,56 L32,56 L32,40 L20,40 L20,48 L32,48 L32,56"/>
  <path d="M32,40 L48,40 L48,48 L40,56 L32,56Z"/>
</svg>
